<svg version="1.1" id="Layer_1" xmlns="http://www.w3.org/2000/svg" x="0" y="0" viewBox="0 0 225 216.7" xml:space="preserve"><style>.st0{fill:#009de4}</style><path class="st0" d="M138.6 80.9c9.6 0 17.4-7.8 17.4-17.4s-7.8-17.4-17.4-17.4c-9.6 0-17.4 7.8-17.4 17.4v8.7h-17.4v-8.7c0-9.6-7.8-17.4-17.4-17.4C76.8 46 69 53.8 69 63.5c0 9.6 7.8 17.4 17.4 17.4h8.7v17.4h-8.7c-9.6 0-17.4 7.8-17.4 17.4s7.8 17.4 17.4 17.4 17.4-7.8 17.4-17.4V107h17.4v8.7c0 9.6 7.8 17.4 17.4 17.4s17.4-7.8 17.4-17.4c0-9.6-7.8-17.4-17.4-17.4h-8.7V80.9h8.7zm-8.7-17.4c0-4.8 3.9-8.7 8.7-8.7 4.8 0 8.7 3.9 8.7 8.7 0 4.8-3.9 8.7-8.7 8.7h-8.7v-8.7zm-34.8 52.2c0 4.8-3.9 8.7-8.7 8.7s-8.7-3.9-8.7-8.7c0-4.8 3.9-8.7 8.7-8.7h8.7v8.7zm0-43.5h-8.7c-4.8 0-8.7-3.9-8.7-8.7 0-4.8 3.9-8.7 8.7-8.7 4.8 0 8.7 3.9 8.7 8.7v8.7zm26.1 26.1h-17.4V80.9h17.4v17.4zm17.4 8.7c4.8 0 8.7 3.9 8.7 8.7 0 4.8-3.9 8.7-8.7 8.7-4.8 0-8.7-3.9-8.7-8.7V107h8.7z"/><path class="st0" d="M215 10c-6.3-6.4-15-10-24-10H34C15.2 0 0 15.2 0 34v148.7c0 18.8 15.2 34 34 34h157c18.8 0 34-15.2 34-34V34c0-9-3.6-17.6-10-24zm-.6 172.7c0 12.9-10.5 23.4-23.4 23.4H34c-12.9 0-23.4-10.5-23.4-23.4V168l1.6 1.3c6.1 5.2 13.8 8 21.8 8h157c8 0 15.7-2.8 21.8-8l1.6-1.3v14.7zm0-39.5c0 12.9-10.5 23.4-23.4 23.4H34c-12.9 0-23.4-10.5-23.4-23.4V34c0-12.9 10.5-23.4 23.4-23.4h157c12.9 0 23.4 10.5 23.4 23.4v109.2z"/></svg>