<svg id="Layer_1" data-name="Layer 1" xmlns="http://www.w3.org/2000/svg" viewBox="0 0 225 225"><defs><style>.cls-1{fill:#009de4}</style></defs><path class="cls-1" d="M210.93 96.69h-12.1a14.08 14.08 0 00-14-13.07H75a14.09 14.09 0 00-14 13.07H5.36A5.36 5.36 0 000 102.05 49 49 0 0048.91 151H61a14.08 14.08 0 0014 13h15.11a25.51 25.51 0 010 32.85h-6.36A22.79 22.79 0 0061 219.64a5.36 5.36 0 005.33 5.36h127.18a5.36 5.36 0 005.36-5.36 22.8 22.8 0 00-22.78-22.77H170a25.46 25.46 0 010-32.87h14.8a14.08 14.08 0 0014-13.06h12.1a14.08 14.08 0 0014.1-14.05v-26.13a14.08 14.08 0 00-14.07-14.07zm0 43.56h-12.06V107.4h12.06a3.37 3.37 0 013.36 3.36v26.13a3.37 3.37 0 01-3.36 3.36zM83.75 207.58h92.34a12.09 12.09 0 0110.81 6.71h-114a12.07 12.07 0 0110.85-6.71zM102.89 164h54.37a36.41 36.41 0 000 32.85h-54.37a36.35 36.35 0 000-32.85zm85.27-66.33V150a3.36 3.36 0 01-3.36 3.35H75a3.35 3.35 0 01-3.31-3.35V97.69A3.35 3.35 0 0175 94.34h109.8a3.36 3.36 0 013.36 3.35zM61 107.4v32.85H48.91a38.14 38.14 0 01-37.82-32.85zM29.75 52.52h90.46v19a5.36 5.36 0 005.36 5.35h39.2a5.36 5.36 0 005.35-5.35V5.36A5.36 5.36 0 00164.77 0h-39.2a5.36 5.36 0 00-5.36 5.36v19H29.75a14.07 14.07 0 100 28.13zm-3.36-14.06a3.37 3.37 0 013.36-3.36H72.3v6.71H29.75a3.36 3.36 0 01-3.36-3.35zM83 41.81V35.1h37.2v6.71zm47.92 24.39V10.71h28.49V66.2z"/></svg>