<svg version="1.1" id="Layer_1" xmlns="http://www.w3.org/2000/svg" x="0" y="0" viewBox="0 0 225 142" xml:space="preserve"><style>.st0{fill:#009de4}</style><path class="st0" d="M49 56.1c-3-1.2-6.4.2-7.6 3.1l-22.2 53.2c-1.2 3 .3 6.4 3.3 7.6 2.9 1.1 6.2-.2 7.4-3l22.3-53.2c1.2-3.1-.2-6.5-3.2-7.7z"/><path class="st0" d="M221.3 55.5c-.1-.1-.2-.3-.3-.4L187.5 8.3c-1.2-1.9-2.7-3.6-4.5-4.9-3.7-2.8-8.4-4-13-3.2-13.2 2.2-42.3 4-57.6 4S68 2.4 54.8.2C47.9-.9 41 2.3 37.4 8.3L4 55.1c-.1.1-.2.3-.3.4C.9 60.2-.4 65.7 0 71.2l4.2 47.9C5.1 132 15.6 142 27.9 142h169c12.4 0 22.8-10.1 23.8-22.9l4.2-48c.5-5.4-.8-10.9-3.6-15.6zM49 12.7c1.1-.9 2.6-1.2 4-1 13.7 2.3 42.9 4.1 59 4.2h1c16.1-.1 45.3-1.9 59-4.2 1.4-.2 2.9.1 4 1 .5.9-.6 5.5-1.3 8.3s-1.4 6.1-2 9.8c-.7 4.9-4.4 8.8-9.2 9.7-12.4 2-33.8 2-51 2s-38.6 0-51-2c-4.8-.9-8.5-4.8-9.2-9.7-.6-3.7-1.4-7-2-9.8s-1.8-7.5-1.3-8.3zm164.3 57.5l-4.2 48c-.5 6.8-5.8 12.1-12.1 12.1H28c-6.3 0-11.6-5.4-12.1-12.2l-4.2-47.9c-.2-3 .5-6 1.9-8.6l25.8-36c.5 2.2 1 4.5 1.4 7 1.4 9.9 9 17.7 18.8 19.4 13.3 2.2 35 2.2 52.4 2.2h.8c17.4 0 39.1 0 52.4-2.2 9.8-1.7 17.4-9.5 18.8-19.4.4-2.5.9-4.9 1.4-7l25.8 36.1c1.6 2.6 2.3 5.5 2.1 8.5z"/><path class="st0" d="M183.6 59.2c-1.2-3-4.7-4.4-7.6-3.1-3 1.2-4.4 4.7-3.1 7.6l22.3 53.2c1.2 3 4.6 4.5 7.6 3.3s4.5-4.6 3.3-7.6c0-.1-.1-.2-.1-.3l-22.4-53.1z"/></svg>